<?xml version="1.0" encoding="utf-8"?>
<svg xmlns="http://www.w3.org/2000/svg" xmlns:lucid="lucid" xmlns:xlink="http://www.w3.org/1999/xlink" width="780" height="500">
  <g transform="translate(-88.99997563660173 -86.16665289551042)">
    <path d="M368.77 112.17a6 6 0 0 1 6-6h148a6 6 0 0 1 6 6v28a6 6 0 0 1-6 6h-148a6 6 0 0 1-6-6z" stroke="#3a414a" fill="#fc9432"/>
    <use xlink:href="#a" transform="matrix(1,0,0,1,380.7683297575633,118.16665289551042) translate(11.000000000000014 21.333333333333332)"/>
    <path d="M368.77 232.17a6 6 0 0 1 6-6h148a6 6 0 0 1 6 6v128a6 6 0 0 1-6 6h-148a6 6 0 0 1-6-6z" stroke="#3a414a" fill="#fc9432"/>
    <use xlink:href="#b" transform="matrix(1,0,0,1,380.7683297575633,238.16665289551042) translate(46.43827160493828 24.888888888888886)"/>
    <path d="M408.77 292.17a6 6 0 0 1 6-6h68a6 6 0 0 1 6 6v28a6 6 0 0 1-6 6h-68a6 6 0 0 1-6-6z" stroke="#3a414a" fill="#fff3d9"/>
    <use xlink:href="#c" transform="matrix(1,0,0,1,420.7683297575633,298.1666528955104) translate(-4.518518518518512 21.333333333333332)"/>
    <path d="M408.77 332.17a6 6 0 0 1 6-6h68a6 6 0 0 1 6 6v28a6 6 0 0 1-6 6h-68a6 6 0 0 1-6-6z" stroke="#3a414a" fill="#fff3d9"/>
    <use xlink:href="#d" transform="matrix(1,0,0,1,420.7683297575633,338.1666528955104) translate(-1.5555555555555536 21.333333333333332)"/>
    <path d="M448.77 207.2v-42.07" stroke="#3a414a" stroke-width="2" fill="none"/>
    <path d="M448.77 222.47l-4.64-14.27h9.27zM448.77 149.87l4.63 14.26h-9.27z" stroke="#3a414a" stroke-width="2" fill="#3a414a"/>
    <path d="M448.77 385.13v22.07" stroke="#3a414a" stroke-width="2" fill="none"/>
    <path d="M448.77 369.87l4.63 14.26h-9.27zM448.77 422.47l-4.64-14.27h9.27z" stroke="#3a414a" stroke-width="2" fill="#3a414a"/>
    <path d="M268.77 432.17a6 6 0 0 1 6-6h348a6 6 0 0 1 6 6v128a6 6 0 0 1-6 6h-348a6 6 0 0 1-6-6z" stroke="#3a414a" fill="#fc9432"/>
    <use xlink:href="#e" transform="matrix(1,0,0,1,280.7683297575632,438.1666528955104) translate(124.01234567901236 24.888888888888886)"/>
    <path d="M288.77 472.17a6 6 0 0 1 6-6h148a6 6 0 0 1 6 6v28a6 6 0 0 1-6 6h-148a6 6 0 0 1-6-6z" stroke="#3a414a" fill="#fff3d9"/>
    <use xlink:href="#f" transform="matrix(1,0,0,1,300.7683297575632,478.1666528955104) translate(25.814814814814824 21.333333333333332)"/>
    <path d="M448.77 472.17a6 6 0 0 1 6-6h148a6 6 0 0 1 6 6v28a6 6 0 0 1-6 6h-148a6 6 0 0 1-6-6z" stroke="#3a414a" fill="#fff3d9"/>
    <use xlink:href="#g" transform="matrix(1,0,0,1,460.7683297575632,478.1666528955104) translate(14.037037037037045 21.333333333333332)"/>
    <path d="M288.77 512.17a6 6 0 0 1 6-6h148a6 6 0 0 1 6 6v28a6 6 0 0 1-6 6h-148a6 6 0 0 1-6-6z" stroke="#3a414a" fill="#fff3d9"/>
    <use xlink:href="#h" transform="matrix(1,0,0,1,300.7683297575632,518.1666528955104) translate(4.44444444444445 21.333333333333332)"/>
    <use xlink:href="#i" transform="matrix(1,0,0,1,300.7683297575632,518.1666528955104) translate(94.59259259259258 21.333333333333332)"/>
    <path d="M448.77 512.17a6 6 0 0 1 6-6h148a6 6 0 0 1 6 6v28a6 6 0 0 1-6 6h-148a6 6 0 0 1-6-6z" stroke="#3a414a" fill="#fff3d9"/>
    <use xlink:href="#j" transform="matrix(1,0,0,1,460.7683297575632,518.1666528955104) translate(27.33333333333333 21.333333333333332)"/>
    <path d="M649 272.17a6 6 0 0 1 6-6h188a6 6 0 0 1 6 6v168a6 6 0 0 1-6 6H655a6 6 0 0 1-6-6z" stroke="#3a414a" fill="#fc9432"/>
    <use xlink:href="#k" transform="matrix(1,0,0,1,660.9999756366017,278.1666528955104) translate(31.006172839506178 24.888888888888886)"/>
    <use xlink:href="#l" transform="matrix(1,0,0,1,660.9999756366017,278.1666528955104) translate(88 58.66666666666666)"/>
    <path d="M669 322.83a6 6 0 0 1 6-6h66.67a6 6 0 0 1 6 6v42.67a6 6 0 0 1-6 6H675a6 6 0 0 1-6-6z" stroke="#3a414a" fill="#fff3d9"/>
    <use xlink:href="#m" transform="matrix(1,0,0,1,680.9999756366017,328.8333195621774) translate(-3.574074074074069 21.333333333333332)"/>
    <path d="M747.67 322.83a6 6 0 0 1 6-6h66.66a6 6 0 0 1 6 6v42.67a6 6 0 0 1-6 6h-66.66a6 6 0 0 1-6-6z" stroke="#3a414a" fill="#fff3d9"/>
    <use xlink:href="#n" transform="matrix(1,0,0,1,759.6666423032677,328.8333195621774) translate(1.6111111111111143 21.333333333333332)"/>
    <path d="M669 377.5a6 6 0 0 1 6-6h66.67a6 6 0 0 1 6 6v42.67a6 6 0 0 1-6 6H675a6 6 0 0 1-6-6z" stroke="#3a414a" fill="#fff3d9"/>
    <use xlink:href="#o" transform="matrix(1,0,0,1,680.9999756366017,383.4999862288439) translate(3.1296296296296333 21.333333333333332)"/>
    <path d="M649 132.17a6 6 0 0 1 6-6h188a6 6 0 0 1 6 6v108a6 6 0 0 1-6 6H655a6 6 0 0 1-6-6z" stroke="#3a414a" fill="#fc9432"/>
    <use xlink:href="#p" transform="matrix(1,0,0,1,660.9999756366017,138.16665289551042) translate(31.13580246913581 24.888888888888886)"/>
    <path d="M669 192.17a6 6 0 0 1 6-6h66.67a6 6 0 0 1 6 6v42.66a6 6 0 0 1-6 6H675a6 6 0 0 1-6-6z" stroke="#3a414a" fill="#fff3d9"/>
    <use xlink:href="#q" transform="matrix(1,0,0,1,680.9999756366017,198.16665289551042) translate(-2.092592592592588 21.333333333333332)"/>
    <path d="M747.67 192.17a6 6 0 0 1 6-6h66.66a6 6 0 0 1 6 6v42.66a6 6 0 0 1-6 6h-66.66a6 6 0 0 1-6-6z" stroke="#3a414a" fill="#fff3d9"/>
    <use xlink:href="#r" transform="matrix(1,0,0,1,759.6666423032682,198.16665289551042) translate(2.3148148148148167 21.333333333333332)"/>
    <path d="M630.03 186.17h-35.16a6 6 0 0 0-6 6v64.53a6 6 0 0 1-6 6H547.7" stroke="#3a414a" stroke-width="2" fill="none"/>
    <path d="M645.3 186.17l-14.27 4.63v-9.27zM532.45 262.7l14.26-4.64v9.27z" stroke="#3a414a" stroke-width="2" fill="#3a414a"/>
    <path d="M630.03 356.17H594.9a6 6 0 0 1-6-6v-20.34a6 6 0 0 0-6-6h-35.15" stroke="#3a414a" stroke-width="2" fill="none"/>
    <path d="M645.3 356.17l-14.27 4.63v-9.27zM532.48 323.83l14.27-4.64v9.26z" stroke="#3a414a" stroke-width="2" fill="#3a414a"/>
    <path d="M529 152.17a6 6 0 0 1 6-6h108a6 6 0 0 1 6 6v28a6 6 0 0 1-6 6H535a6 6 0 0 1-6-6z" stroke="#000" stroke-opacity="0" stroke-width="2" fill="#fff" fill-opacity="0"/>
    <use xlink:href="#s" transform="matrix(1,0,0,1,533.9999756366017,151.16665289551042) translate(11.69444444444445 19.75)"/>
    <path d="M528.77 372.17a6 6 0 0 1 6-6h108a6 6 0 0 1 6 6v28a6 6 0 0 1-6 6h-108a6 6 0 0 1-6-6z" stroke="#000" stroke-opacity="0" stroke-width="2" fill="#fff" fill-opacity="0"/>
    <use xlink:href="#s" transform="matrix(1,0,0,1,533.7683297575634,371.1666528955104) translate(11.69444444444445 19.75)"/>
    <path d="M328.77 384.83a6 6 0 0 1 6-6h108a6 6 0 0 1 6 6v28a6 6 0 0 1-6 6h-108a6 6 0 0 1-6-6z" stroke="#000" stroke-opacity="0" stroke-width="2" fill="#fff" fill-opacity="0"/>
    <use xlink:href="#s" transform="matrix(1,0,0,1,333.7683297575632,383.83331956217717) translate(11.69444444444445 19.75)"/>
    <path d="M308.77 160.5a6 6 0 0 1 6-6h108a6 6 0 0 1 6 6v51.33a6 6 0 0 1-6 6h-108a6 6 0 0 1-6-6z" stroke="#000" stroke-opacity="0" stroke-width="2" fill="#fff" fill-opacity="0"/>
    <use xlink:href="#t" transform="matrix(1,0,0,1,313.7683297575632,159.4999862288439) translate(-2.0833333333333286 19)"/>
    <use xlink:href="#u" transform="matrix(1,0,0,1,313.7683297575632,159.4999862288439) translate(27.861111111111118 43)"/>
    <path d="M230.56 223.83a6 6 0 0 1 6-6h108a6 6 0 0 1 6 6v28a6 6 0 0 1-6 6h-108a6 6 0 0 1-6-6z" stroke="#000" stroke-opacity="0" stroke-width="2" fill="#fff" fill-opacity="0"/>
    <use xlink:href="#v" transform="matrix(1,0,0,1,235.5649548489735,222.83331956217717) translate(30.925925925925927 19.65277777777778)"/>
    <path d="M109 192.17a6 6 0 0 1 6-6h82.28a6 6 0 0 1 6 6v68a6 6 0 0 1-6 6H115a6 6 0 0 1-6-6z" stroke="#3a414a" fill="#6db1ff"/>
    <use xlink:href="#w" transform="matrix(1,0,0,1,120.99997563660173,198.16665289551042) translate(14.759259259259263 35.388888888888886)"/>
    <path d="M109 312.17a6 6 0 0 1 6-6h82.28a6 6 0 0 1 6 6v68a6 6 0 0 1-6 6H115a6 6 0 0 1-6-6z" stroke="#3a414a" fill="#54c45e"/>
    <use xlink:href="#x" transform="matrix(1,0,0,1,120.99997563660173,318.1666528955104) translate(1.8395061728395135 35.388888888888886)"/>
    <path d="M222.25 226.17H243a6 6 0 0 1 6 6v26.13a6 6 0 0 0 6 6h94.78" stroke="#3a414a" stroke-width="2" fill="none"/>
    <path d="M206.98 226.17l14.27-4.64v9.27zM365.05 264.3l-14.27 4.64v-9.27z" stroke="#3a414a" stroke-width="2" fill="#3a414a"/>
    <path d="M222.25 346.17H243a6 6 0 0 0 6-6V326.6a6 6 0 0 1 6-6h94.82" stroke="#3a414a" stroke-width="2" fill="none"/>
    <path d="M206.98 346.17l14.27-4.64v9.27zM365.08 320.6l-14.26 4.64v-9.27z" stroke="#3a414a" stroke-width="2" fill="#3a414a"/>
    <path d="M226.03 332.17a6 6 0 0 1 6-6h108a6 6 0 0 1 6 6v51.33a6 6 0 0 1-6 6h-108a6 6 0 0 1-6-6z" stroke="#000" stroke-opacity="0" stroke-width="2" fill="#fff" fill-opacity="0"/>
    <g>
      <use xlink:href="#y" transform="matrix(1,0,0,1,231.02619538559662,331.1666528955104) translate(25.277777777777782 19.375)"/>
      <use xlink:href="#z" transform="matrix(1,0,0,1,231.02619538559662,331.1666528955104) translate(30 43.37499999999999)"/>
    </g>
    <defs>
      <path fill="#3a414a" d="M194 0L95-120 63-95V0H30v-248h33v124l119-124h40L117-140 236 0h-42" id="A"/>
      <path fill="#3a414a" d="M100-194c63 0 86 42 84 106H49c0 40 14 67 53 68 26 1 43-12 49-29l28 8c-11 28-37 45-77 45C44 4 14-33 15-96c1-61 26-98 85-98zm52 81c6-60-76-77-97-28-3 7-6 17-6 28h103" id="B"/>
      <path fill="#3a414a" d="M179-190L93 31C79 59 56 82 12 73V49c39 6 53-20 64-50L1-190h34L92-34l54-156h33" id="C"/>
      <path fill="#3a414a" d="M115-194c53 0 69 39 70 98 0 66-23 100-70 100C84 3 66-7 56-30L54 0H23l1-261h32v101c10-23 28-34 59-34zm-8 174c40 0 45-34 45-75 0-40-5-75-45-74-42 0-51 32-51 76 0 43 10 73 51 73" id="D"/>
      <path fill="#3a414a" d="M100-194c62-1 85 37 85 99 1 63-27 99-86 99S16-35 15-95c0-66 28-99 85-99zM99-20c44 1 53-31 53-75 0-43-8-75-51-75s-53 32-53 75 10 74 51 75" id="E"/>
      <path fill="#3a414a" d="M141-36C126-15 110 5 73 4 37 3 15-17 15-53c-1-64 63-63 125-63 3-35-9-54-41-54-24 1-41 7-42 31l-33-3c5-37 33-52 76-52 45 0 72 20 72 64v82c-1 20 7 32 28 27v20c-31 9-61-2-59-35zM48-53c0 20 12 33 32 33 41-3 63-29 60-74-43 2-92-5-92 41" id="F"/>
      <path fill="#3a414a" d="M114-163C36-179 61-72 57 0H25l-1-190h30c1 12-1 29 2 39 6-27 23-49 58-41v29" id="G"/>
      <path fill="#3a414a" d="M85-194c31 0 48 13 60 33l-1-100h32l1 261h-30c-2-10 0-23-3-31C134-8 116 4 85 4 32 4 16-35 15-94c0-66 23-100 70-100zm9 24c-40 0-46 34-46 75 0 40 6 74 45 74 42 0 51-32 51-76 0-42-9-74-50-73" id="H"/>
      <g id="a">
        <use transform="matrix(0.07407407407407407,0,0,0.07407407407407407,0,0)" xlink:href="#A"/>
        <use transform="matrix(0.07407407407407407,0,0,0.07407407407407407,17.77777777777778,0)" xlink:href="#B"/>
        <use transform="matrix(0.07407407407407407,0,0,0.07407407407407407,32.592592592592595,0)" xlink:href="#C"/>
        <use transform="matrix(0.07407407407407407,0,0,0.07407407407407407,45.925925925925924,0)" xlink:href="#D"/>
        <use transform="matrix(0.07407407407407407,0,0,0.07407407407407407,60.74074074074074,0)" xlink:href="#E"/>
        <use transform="matrix(0.07407407407407407,0,0,0.07407407407407407,75.55555555555554,0)" xlink:href="#F"/>
        <use transform="matrix(0.07407407407407407,0,0,0.07407407407407407,90.37037037037035,0)" xlink:href="#G"/>
        <use transform="matrix(0.07407407407407407,0,0,0.07407407407407407,99.18518518518516,0)" xlink:href="#H"/>
      </g>
      <path fill="#3a414a" d="M30 0v-248h187v28H63v79h144v27H63v87h162V0H30" id="I"/>
      <path fill="#3a414a" d="M212-179c-10-28-35-45-73-45-59 0-87 40-87 99 0 60 29 101 89 101 43 0 62-24 78-52l27 14C228-24 195 4 139 4 59 4 22-46 18-125c-6-104 99-153 187-111 19 9 31 26 39 46" id="J"/>
      <g id="b">
        <use transform="matrix(0.08641975308641973,0,0,0.08641975308641973,0,0)" xlink:href="#I"/>
        <use transform="matrix(0.08641975308641973,0,0,0.08641975308641973,20.740740740740737,0)" xlink:href="#J"/>
      </g>
      <path fill="#3a414a" d="M63-220v92h138v28H63V0H30v-248h175v28H63" id="K"/>
      <path fill="#3a414a" d="M24 0v-261h32V0H24" id="L"/>
      <path fill="#3a414a" d="M135-143c-3-34-86-38-87 0 15 53 115 12 119 90S17 21 10-45l28-5c4 36 97 45 98 0-10-56-113-15-118-90-4-57 82-63 122-42 12 7 21 19 24 35" id="M"/>
      <path fill="#3a414a" d="M106-169C34-169 62-67 57 0H25v-261h32l-1 103c12-21 28-36 61-36 89 0 53 116 60 194h-32v-121c2-32-8-49-39-48" id="N"/>
      <g id="c">
        <use transform="matrix(0.07407407407407407,0,0,0.07407407407407407,0,0)" xlink:href="#K"/>
        <use transform="matrix(0.07407407407407407,0,0,0.07407407407407407,16.22222222222222,0)" xlink:href="#L"/>
        <use transform="matrix(0.07407407407407407,0,0,0.07407407407407407,22.074074074074073,0)" xlink:href="#F"/>
        <use transform="matrix(0.07407407407407407,0,0,0.07407407407407407,36.888888888888886,0)" xlink:href="#M"/>
        <use transform="matrix(0.07407407407407407,0,0,0.07407407407407407,50.222222222222214,0)" xlink:href="#N"/>
      </g>
      <path fill="#3a414a" d="M233-177c-1 41-23 64-60 70L243 0h-38l-65-103H63V0H30v-248c88 3 205-21 203 71zM63-129c60-2 137 13 137-47 0-61-80-42-137-45v92" id="O"/>
      <path fill="#3a414a" d="M205 0l-28-72H64L36 0H1l101-248h38L239 0h-34zm-38-99l-47-123c-12 45-31 82-46 123h93" id="P"/>
      <path fill="#3a414a" d="M240 0l2-218c-23 76-54 145-80 218h-23L58-218 59 0H30v-248h44l77 211c21-75 51-140 76-211h43V0h-30" id="Q"/>
      <g id="d">
        <use transform="matrix(0.07407407407407407,0,0,0.07407407407407407,0,0)" xlink:href="#O"/>
        <use transform="matrix(0.07407407407407407,0,0,0.07407407407407407,19.185185185185183,0)" xlink:href="#P"/>
        <use transform="matrix(0.07407407407407407,0,0,0.07407407407407407,36.96296296296296,0)" xlink:href="#Q"/>
      </g>
      <path fill="#3a414a" d="M30-248c87 1 191-15 191 75 0 78-77 80-158 76V0H30v-248zm33 125c57 0 124 11 124-50 0-59-68-47-124-48v98" id="R"/>
      <path fill="#3a414a" d="M206 0h-36l-40-164L89 0H53L-1-190h32L70-26l43-164h34l41 164 42-164h31" id="S"/>
      <g id="e">
        <use transform="matrix(0.08641975308641973,0,0,0.08641975308641973,0,0)" xlink:href="#R"/>
        <use transform="matrix(0.08641975308641973,0,0,0.08641975308641973,20.740740740740737,0)" xlink:href="#E"/>
        <use transform="matrix(0.08641975308641973,0,0,0.08641975308641973,38.02469135802468,0)" xlink:href="#S"/>
        <use transform="matrix(0.08641975308641973,0,0,0.08641975308641973,60.4074074074074,0)" xlink:href="#B"/>
        <use transform="matrix(0.08641975308641973,0,0,0.08641975308641973,77.69135802469134,0)" xlink:href="#G"/>
      </g>
      <path fill="#3a414a" d="M160-131c35 5 61 23 61 61C221 17 115-2 30 0v-248c76 3 177-17 177 60 0 33-19 50-47 57zm-97-11c50-1 110 9 110-42 0-47-63-36-110-37v79zm0 115c55-2 124 14 124-45 0-56-70-42-124-44v89" id="T"/>
      <path fill="#3a414a" d="M59-47c-2 24 18 29 38 22v24C64 9 27 4 27-40v-127H5v-23h24l9-43h21v43h35v23H59v120" id="U"/>
      <g id="f">
        <use transform="matrix(0.07407407407407407,0,0,0.07407407407407407,0,0)" xlink:href="#T"/>
        <use transform="matrix(0.07407407407407407,0,0,0.07407407407407407,17.77777777777778,0)" xlink:href="#F"/>
        <use transform="matrix(0.07407407407407407,0,0,0.07407407407407407,32.592592592592595,0)" xlink:href="#U"/>
        <use transform="matrix(0.07407407407407407,0,0,0.07407407407407407,40,0)" xlink:href="#U"/>
        <use transform="matrix(0.07407407407407407,0,0,0.07407407407407407,47.407407407407405,0)" xlink:href="#B"/>
        <use transform="matrix(0.07407407407407407,0,0,0.07407407407407407,62.22222222222221,0)" xlink:href="#G"/>
        <use transform="matrix(0.07407407407407407,0,0,0.07407407407407407,71.03703703703702,0)" xlink:href="#C"/>
      </g>
      <path fill="#3a414a" d="M177-190C167-65 218 103 67 71c-23-6-38-20-44-43l32-5c15 47 100 32 89-28v-30C133-14 115 1 83 1 29 1 15-40 15-95c0-56 16-97 71-98 29-1 48 16 59 35 1-10 0-23 2-32h30zM94-22c36 0 50-32 50-73 0-42-14-75-50-75-39 0-46 34-46 75s6 73 46 73" id="V"/>
      <path fill="#3a414a" d="M24-231v-30h32v30H24zM24 0v-190h32V0H24" id="W"/>
      <path fill="#3a414a" d="M117-194c89-4 53 116 60 194h-32v-121c0-31-8-49-39-48C34-167 62-67 57 0H25l-1-190h30c1 10-1 24 2 32 11-22 29-35 61-36" id="X"/>
      <g id="g">
        <use transform="matrix(0.07407407407407407,0,0,0.07407407407407407,0,0)" xlink:href="#J"/>
        <use transform="matrix(0.07407407407407407,0,0,0.07407407407407407,19.185185185185183,0)" xlink:href="#N"/>
        <use transform="matrix(0.07407407407407407,0,0,0.07407407407407407,34,0)" xlink:href="#F"/>
        <use transform="matrix(0.07407407407407407,0,0,0.07407407407407407,48.81481481481481,0)" xlink:href="#G"/>
        <use transform="matrix(0.07407407407407407,0,0,0.07407407407407407,57.629629629629626,0)" xlink:href="#V"/>
        <use transform="matrix(0.07407407407407407,0,0,0.07407407407407407,72.44444444444444,0)" xlink:href="#W"/>
        <use transform="matrix(0.07407407407407407,0,0,0.07407407407407407,78.29629629629629,0)" xlink:href="#X"/>
        <use transform="matrix(0.07407407407407407,0,0,0.07407407407407407,93.1111111111111,0)" xlink:href="#V"/>
      </g>
      <path fill="#3a414a" d="M232-93c-1 65-40 97-104 97C67 4 28-28 28-90v-158h33c8 89-33 224 67 224 102 0 64-133 71-224h33v155" id="Y"/>
      <path fill="#3a414a" d="M185-189c-5-48-123-54-124 2 14 75 158 14 163 119 3 78-121 87-175 55-17-10-28-26-33-46l33-7c5 56 141 63 141-1 0-78-155-14-162-118-5-82 145-84 179-34 5 7 8 16 11 25" id="Z"/>
      <path fill="#3a414a" d="M16-82v-28h88v28H16" id="aa"/>
      <g id="h">
        <use transform="matrix(0.07407407407407407,0,0,0.07407407407407407,0,0)" xlink:href="#Y"/>
        <use transform="matrix(0.07407407407407407,0,0,0.07407407407407407,19.185185185185183,0)" xlink:href="#Z"/>
        <use transform="matrix(0.07407407407407407,0,0,0.07407407407407407,36.96296296296296,0)" xlink:href="#T"/>
        <use transform="matrix(0.07407407407407407,0,0,0.07407407407407407,54.74074074074074,0)" xlink:href="#aa"/>
        <use transform="matrix(0.07407407407407407,0,0,0.07407407407407407,63.55555555555556,0)" xlink:href="#J"/>
      </g>
      <path fill="#3a414a" d="M30-248c118-7 216 8 213 122C240-48 200 0 122 0H30v-248zM63-27c89 8 146-16 146-99s-60-101-146-95v194" id="ab"/>
      <g id="i">
        <use transform="matrix(0.07407407407407407,0,0,0.07407407407407407,0,0)" xlink:href="#R"/>
        <use transform="matrix(0.07407407407407407,0,0,0.07407407407407407,17.77777777777778,0)" xlink:href="#ab"/>
      </g>
      <g id="j">
        <use transform="matrix(0.07407407407407407,0,0,0.07407407407407407,0,0)" xlink:href="#Y"/>
        <use transform="matrix(0.07407407407407407,0,0,0.07407407407407407,19.185185185185183,0)" xlink:href="#Z"/>
        <use transform="matrix(0.07407407407407407,0,0,0.07407407407407407,36.96296296296296,0)" xlink:href="#T"/>
        <use transform="matrix(0.07407407407407407,0,0,0.07407407407407407,54.74074074074074,0)" xlink:href="#aa"/>
        <use transform="matrix(0.07407407407407407,0,0,0.07407407407407407,63.55555555555556,0)" xlink:href="#P"/>
      </g>
      <g id="k">
        <use transform="matrix(0.08641975308641973,0,0,0.08641975308641973,0,0)" xlink:href="#Z"/>
        <use transform="matrix(0.08641975308641973,0,0,0.08641975308641973,20.740740740740737,0)" xlink:href="#B"/>
        <use transform="matrix(0.08641975308641973,0,0,0.08641975308641973,38.02469135802468,0)" xlink:href="#X"/>
        <use transform="matrix(0.08641975308641973,0,0,0.08641975308641973,55.30864197530863,0)" xlink:href="#M"/>
        <use transform="matrix(0.08641975308641973,0,0,0.08641975308641973,70.86419753086419,0)" xlink:href="#E"/>
        <use transform="matrix(0.08641975308641973,0,0,0.08641975308641973,88.14814814814814,0)" xlink:href="#G"/>
        <use transform="matrix(0.08641975308641973,0,0,0.08641975308641973,98.4320987654321,0)" xlink:href="#M"/>
      </g>
      <path fill="#3a414a" d="M96-169c-40 0-48 33-48 73s9 75 48 75c24 0 41-14 43-38l32 2c-6 37-31 61-74 61-59 0-76-41-82-99-10-93 101-131 147-64 4 7 5 14 7 22l-32 3c-4-21-16-35-41-35" id="ac"/>
      <g id="m">
        <use transform="matrix(0.07407407407407407,0,0,0.07407407407407407,0,0)" xlink:href="#F"/>
        <use transform="matrix(0.07407407407407407,0,0,0.07407407407407407,14.814814814814813,0)" xlink:href="#ac"/>
        <use transform="matrix(0.07407407407407407,0,0,0.07407407407407407,28.148148148148145,0)" xlink:href="#ac"/>
        <use transform="matrix(0.07407407407407407,0,0,0.07407407407407407,41.48148148148148,0)" xlink:href="#B"/>
        <use transform="matrix(0.07407407407407407,0,0,0.07407407407407407,56.29629629629629,0)" xlink:href="#L"/>
      </g>
      <g id="n">
        <use transform="matrix(0.07407407407407407,0,0,0.07407407407407407,0,0)" xlink:href="#V"/>
        <use transform="matrix(0.07407407407407407,0,0,0.07407407407407407,14.814814814814813,0)" xlink:href="#C"/>
        <use transform="matrix(0.07407407407407407,0,0,0.07407407407407407,28.148148148148145,0)" xlink:href="#G"/>
        <use transform="matrix(0.07407407407407407,0,0,0.07407407407407407,36.96296296296296,0)" xlink:href="#E"/>
      </g>
      <g id="o">
        <use transform="matrix(0.07407407407407407,0,0,0.07407407407407407,0,0)" xlink:href="#L"/>
        <use transform="matrix(0.07407407407407407,0,0,0.07407407407407407,5.851851851851851,0)" xlink:href="#W"/>
        <use transform="matrix(0.07407407407407407,0,0,0.07407407407407407,11.703703703703702,0)" xlink:href="#V"/>
        <use transform="matrix(0.07407407407407407,0,0,0.07407407407407407,26.518518518518515,0)" xlink:href="#N"/>
        <use transform="matrix(0.07407407407407407,0,0,0.07407407407407407,41.33333333333333,0)" xlink:href="#U"/>
      </g>
      <path fill="#3a414a" d="M127-220V0H93v-220H8v-28h204v28h-85" id="ad"/>
      <path fill="#3a414a" d="M210-169c-67 3-38 105-44 169h-31v-121c0-29-5-50-35-48C34-165 62-65 56 0H25l-1-190h30c1 10-1 24 2 32 10-44 99-50 107 0 11-21 27-35 58-36 85-2 47 119 55 194h-31v-121c0-29-5-49-35-48" id="ae"/>
      <g id="p">
        <use transform="matrix(0.08641975308641973,0,0,0.08641975308641973,0,0)" xlink:href="#ad"/>
        <use transform="matrix(0.08641975308641973,0,0,0.08641975308641973,18.92592592592592,0)" xlink:href="#N"/>
        <use transform="matrix(0.08641975308641973,0,0,0.08641975308641973,36.209876543209866,0)" xlink:href="#B"/>
        <use transform="matrix(0.08641975308641973,0,0,0.08641975308641973,53.49382716049381,0)" xlink:href="#G"/>
        <use transform="matrix(0.08641975308641973,0,0,0.08641975308641973,63.77777777777776,0)" xlink:href="#ae"/>
        <use transform="matrix(0.08641975308641973,0,0,0.08641975308641973,89.61728395061726,0)" xlink:href="#F"/>
        <use transform="matrix(0.08641975308641973,0,0,0.08641975308641973,106.90123456790121,0)" xlink:href="#L"/>
      </g>
      <path fill="#3a414a" d="M115-194c55 1 70 41 70 98S169 2 115 4C84 4 66-9 55-30l1 105H24l-1-265h31l2 30c10-21 28-34 59-34zm-8 174c40 0 45-34 45-75s-6-73-45-74c-42 0-51 32-51 76 0 43 10 73 51 73" id="af"/>
      <g id="q">
        <use transform="matrix(0.07407407407407407,0,0,0.07407407407407407,0,0)" xlink:href="#U"/>
        <use transform="matrix(0.07407407407407407,0,0,0.07407407407407407,7.4074074074074066,0)" xlink:href="#B"/>
        <use transform="matrix(0.07407407407407407,0,0,0.07407407407407407,22.22222222222222,0)" xlink:href="#ae"/>
        <use transform="matrix(0.07407407407407407,0,0,0.07407407407407407,44.37037037037037,0)" xlink:href="#af"/>
      </g>
      <path fill="#3a414a" d="M101-234c-31-9-42 10-38 44h38v23H63V0H32v-167H5v-23h27c-7-52 17-82 69-68v24" id="ag"/>
      <g id="r">
        <use transform="matrix(0.07407407407407407,0,0,0.07407407407407407,0,0)" xlink:href="#ag"/>
        <use transform="matrix(0.07407407407407407,0,0,0.07407407407407407,7.4074074074074066,0)" xlink:href="#F"/>
        <use transform="matrix(0.07407407407407407,0,0,0.07407407407407407,22.22222222222222,0)" xlink:href="#X"/>
        <use transform="matrix(0.07407407407407407,0,0,0.07407407407407407,37.03703703703704,0)" xlink:href="#M"/>
      </g>
      <path fill="#fc9432" d="M33 0v-248h34V0H33" id="ah"/>
      <path fill="#fc9432" d="M101-251c82-7 93 87 43 132L82-64C71-53 59-42 53-27h129V0H18c2-99 128-94 128-182 0-28-16-43-45-43s-46 15-49 41l-32-3c6-41 34-60 81-64" id="ai"/>
      <path fill="#fc9432" d="M212-179c-10-28-35-45-73-45-59 0-87 40-87 99 0 60 29 101 89 101 43 0 62-24 78-52l27 14C228-24 195 4 139 4 59 4 22-46 18-125c-6-104 99-153 187-111 19 9 31 26 39 46" id="aj"/>
      <path fill="#fc9432" d="M0 4l72-265h28L28 4H0" id="ak"/>
      <path fill="#fc9432" d="M143 4C61 4 22-44 18-125c-5-107 100-154 193-111 17 8 29 25 37 43l-32 9c-13-25-37-40-76-40-61 0-88 39-88 99 0 61 29 100 91 101 35 0 62-11 79-27v-45h-74v-28h105v86C228-13 192 4 143 4" id="al"/>
      <path fill="#fc9432" d="M30-248c87 1 191-15 191 75 0 78-77 80-158 76V0H30v-248zm33 125c57 0 124 11 124-50 0-59-68-47-124-48v98" id="am"/>
      <path fill="#fc9432" d="M140-251c81 0 123 46 123 126C263-46 219 4 140 4 59 4 17-45 17-125s42-126 123-126zm0 227c63 0 89-41 89-101s-29-99-89-99c-61 0-89 39-89 99S79-25 140-24" id="an"/>
      <g id="s">
        <use transform="matrix(0.055555555555555546,0,0,0.055555555555555546,0,0)" xlink:href="#ah"/>
        <use transform="matrix(0.055555555555555546,0,0,0.055555555555555546,5.5555555555555545,0)" xlink:href="#ai"/>
        <use transform="matrix(0.055555555555555546,0,0,0.055555555555555546,16.666666666666664,0)" xlink:href="#aj"/>
        <use transform="matrix(0.055555555555555546,0,0,0.055555555555555546,31.05555555555555,0)" xlink:href="#ak"/>
        <use transform="matrix(0.055555555555555546,0,0,0.055555555555555546,36.61111111111111,0)" xlink:href="#al"/>
        <use transform="matrix(0.055555555555555546,0,0,0.055555555555555546,52.16666666666666,0)" xlink:href="#am"/>
        <use transform="matrix(0.055555555555555546,0,0,0.055555555555555546,65.49999999999999,0)" xlink:href="#ah"/>
        <use transform="matrix(0.055555555555555546,0,0,0.055555555555555546,71.05555555555554,0)" xlink:href="#an"/>
      </g>
      <path fill="#fc9432" d="M233-177c-1 41-23 64-60 70L243 0h-38l-65-103H63V0H30v-248c88 3 205-21 203 71zM63-129c60-2 137 13 137-47 0-61-80-42-137-45v92" id="ao"/>
      <path fill="#fc9432" d="M100-194c62-1 85 37 85 99 1 63-27 99-86 99S16-35 15-95c0-66 28-99 85-99zM99-20c44 1 53-31 53-75 0-43-8-75-51-75s-53 32-53 75 10 74 51 75" id="ap"/>
      <path fill="#fc9432" d="M206 0h-36l-40-164L89 0H53L-1-190h32L70-26l43-164h34l41 164 42-164h31" id="aq"/>
      <path fill="#fc9432" d="M24 0v-261h32V0H24" id="ar"/>
      <path fill="#fc9432" d="M84 4C-5 8 30-112 23-190h32v120c0 31 7 50 39 49 72-2 45-101 50-169h31l1 190h-30c-1-10 1-25-2-33-11 22-28 36-60 37" id="as"/>
      <path fill="#fc9432" d="M210-169c-67 3-38 105-44 169h-31v-121c0-29-5-50-35-48C34-165 62-65 56 0H25l-1-190h30c1 10-1 24 2 32 10-44 99-50 107 0 11-21 27-35 58-36 85-2 47 119 55 194h-31v-121c0-29-5-49-35-48" id="at"/>
      <path fill="#fc9432" d="M117-194c89-4 53 116 60 194h-32v-121c0-31-8-49-39-48C34-167 62-67 57 0H25l-1-190h30c1 10-1 24 2 32 11-22 29-35 61-36" id="au"/>
      <g id="t">
        <use transform="matrix(0.055555555555555546,0,0,0.055555555555555546,0,0)" xlink:href="#ao"/>
        <use transform="matrix(0.055555555555555546,0,0,0.055555555555555546,14.388888888888886,0)" xlink:href="#ap"/>
        <use transform="matrix(0.055555555555555546,0,0,0.055555555555555546,25.499999999999993,0)" xlink:href="#aq"/>
        <use transform="matrix(0.055555555555555546,0,0,0.055555555555555546,39.88888888888888,0)" xlink:href="#ak"/>
        <use transform="matrix(0.055555555555555546,0,0,0.055555555555555546,45.444444444444436,0)" xlink:href="#aj"/>
        <use transform="matrix(0.055555555555555546,0,0,0.055555555555555546,59.83333333333332,0)" xlink:href="#ap"/>
        <use transform="matrix(0.055555555555555546,0,0,0.055555555555555546,70.94444444444443,0)" xlink:href="#ar"/>
        <use transform="matrix(0.055555555555555546,0,0,0.055555555555555546,75.33333333333331,0)" xlink:href="#as"/>
        <use transform="matrix(0.055555555555555546,0,0,0.055555555555555546,86.44444444444443,0)" xlink:href="#at"/>
        <use transform="matrix(0.055555555555555546,0,0,0.055555555555555546,103.05555555555554,0)" xlink:href="#au"/>
      </g>
      <path fill="#fc9432" d="M240 0l2-218c-23 76-54 145-80 218h-23L58-218 59 0H30v-248h44l77 211c21-75 51-140 76-211h43V0h-30" id="av"/>
      <path fill="#fc9432" d="M141-36C126-15 110 5 73 4 37 3 15-17 15-53c-1-64 63-63 125-63 3-35-9-54-41-54-24 1-41 7-42 31l-33-3c5-37 33-52 76-52 45 0 72 20 72 64v82c-1 20 7 32 28 27v20c-31 9-61-2-59-35zM48-53c0 20 12 33 32 33 41-3 63-29 60-74-43 2-92-5-92 41" id="aw"/>
      <path fill="#fc9432" d="M59-47c-2 24 18 29 38 22v24C64 9 27 4 27-40v-127H5v-23h24l9-43h21v43h35v23H59v120" id="ax"/>
      <path fill="#fc9432" d="M114-163C36-179 61-72 57 0H25l-1-190h30c1 12-1 29 2 39 6-27 23-49 58-41v29" id="ay"/>
      <path fill="#fc9432" d="M24-231v-30h32v30H24zM24 0v-190h32V0H24" id="az"/>
      <path fill="#fc9432" d="M141 0L90-78 38 0H4l68-98-65-92h35l48 74 47-74h35l-64 92 68 98h-35" id="aA"/>
      <g id="u">
        <use transform="matrix(0.055555555555555546,0,0,0.055555555555555546,0,0)" xlink:href="#av"/>
        <use transform="matrix(0.055555555555555546,0,0,0.055555555555555546,16.611111111111107,0)" xlink:href="#aw"/>
        <use transform="matrix(0.055555555555555546,0,0,0.055555555555555546,27.722222222222214,0)" xlink:href="#ax"/>
        <use transform="matrix(0.055555555555555546,0,0,0.055555555555555546,33.27777777777777,0)" xlink:href="#ay"/>
        <use transform="matrix(0.055555555555555546,0,0,0.055555555555555546,39.88888888888888,0)" xlink:href="#az"/>
        <use transform="matrix(0.055555555555555546,0,0,0.055555555555555546,44.277777777777764,0)" xlink:href="#aA"/>
      </g>
      <path fill="#6db1ff" d="M100-194c63 0 86 42 84 106H49c0 40 14 67 53 68 26 1 43-12 49-29l28 8c-11 28-37 45-77 45C44 4 14-33 15-96c1-61 26-98 85-98zm52 81c6-60-76-77-97-28-3 7-6 17-6 28h103" id="aB"/>
      <path fill="#6db1ff" d="M185-189c-5-48-123-54-124 2 14 75 158 14 163 119 3 78-121 87-175 55-17-10-28-26-33-46l33-7c5 56 141 63 141-1 0-78-155-14-162-118-5-82 145-84 179-34 5 7 8 16 11 25" id="aC"/>
      <path fill="#6db1ff" d="M30-248c87 1 191-15 191 75 0 78-77 80-158 76V0H30v-248zm33 125c57 0 124 11 124-50 0-59-68-47-124-48v98" id="aD"/>
      <path fill="#6db1ff" d="M33 0v-248h34V0H33" id="aE"/>
      <g id="v">
        <use transform="matrix(0.06172839506172839,0,0,0.06172839506172839,0,0)" xlink:href="#aB"/>
        <use transform="matrix(0.06172839506172839,0,0,0.06172839506172839,12.345679012345679,0)" xlink:href="#aC"/>
        <use transform="matrix(0.06172839506172839,0,0,0.06172839506172839,27.160493827160494,0)" xlink:href="#aD"/>
        <use transform="matrix(0.06172839506172839,0,0,0.06172839506172839,41.9753086419753,0)" xlink:href="#aE"/>
      </g>
      <g id="w">
        <use transform="matrix(0.08641975308641973,0,0,0.08641975308641973,0,0)" xlink:href="#P"/>
        <use transform="matrix(0.08641975308641973,0,0,0.08641975308641973,20.740740740740737,0)" xlink:href="#R"/>
      </g>
      <path fill="#3a414a" d="M143 4C61 4 22-44 18-125c-5-107 100-154 193-111 17 8 29 25 37 43l-32 9c-13-25-37-40-76-40-61 0-88 39-88 99 0 61 29 100 91 101 35 0 62-11 79-27v-45h-74v-28h105v86C228-13 192 4 143 4" id="aF"/>
      <g id="x">
        <use transform="matrix(0.08641975308641973,0,0,0.08641975308641973,0,0)" xlink:href="#aF"/>
        <use transform="matrix(0.08641975308641973,0,0,0.08641975308641973,24.197530864197525,0)" xlink:href="#Z"/>
        <use transform="matrix(0.08641975308641973,0,0,0.08641975308641973,44.938271604938265,0)" xlink:href="#J"/>
      </g>
      <path fill="#54c45e" d="M232-93c-1 65-40 97-104 97C67 4 28-28 28-90v-158h33c8 89-33 224 67 224 102 0 64-133 71-224h33v155" id="aG"/>
      <path fill="#54c45e" d="M205 0l-28-72H64L36 0H1l101-248h38L239 0h-34zm-38-99l-47-123c-12 45-31 82-46 123h93" id="aH"/>
      <path fill="#54c45e" d="M233-177c-1 41-23 64-60 70L243 0h-38l-65-103H63V0H30v-248c88 3 205-21 203 71zM63-129c60-2 137 13 137-47 0-61-80-42-137-45v92" id="aI"/>
      <path fill="#54c45e" d="M127-220V0H93v-220H8v-28h204v28h-85" id="aJ"/>
      <path fill="#54c45e" d="M0 4l72-265h28L28 4H0" id="aK"/>
      <g id="y">
        <use transform="matrix(0.055555555555555546,0,0,0.055555555555555546,0,0)" xlink:href="#aG"/>
        <use transform="matrix(0.055555555555555546,0,0,0.055555555555555546,14.388888888888886,0)" xlink:href="#aH"/>
        <use transform="matrix(0.055555555555555546,0,0,0.055555555555555546,27.722222222222214,0)" xlink:href="#aI"/>
        <use transform="matrix(0.055555555555555546,0,0,0.055555555555555546,41.722222222222214,0)" xlink:href="#aJ"/>
        <use transform="matrix(0.055555555555555546,0,0,0.055555555555555546,53.88888888888888,0)" xlink:href="#aK"/>
      </g>
      <path fill="#54c45e" d="M143 4C61 4 22-44 18-125c-5-107 100-154 193-111 17 8 29 25 37 43l-32 9c-13-25-37-40-76-40-61 0-88 39-88 99 0 61 29 100 91 101 35 0 62-11 79-27v-45h-74v-28h105v86C228-13 192 4 143 4" id="aL"/>
      <path fill="#54c45e" d="M30-248c87 1 191-15 191 75 0 78-77 80-158 76V0H30v-248zm33 125c57 0 124 11 124-50 0-59-68-47-124-48v98" id="aM"/>
      <path fill="#54c45e" d="M33 0v-248h34V0H33" id="aN"/>
      <path fill="#54c45e" d="M140-251c81 0 123 46 123 126C263-46 219 4 140 4 59 4 17-45 17-125s42-126 123-126zm0 227c63 0 89-41 89-101s-29-99-89-99c-61 0-89 39-89 99S79-25 140-24" id="aO"/>
      <g id="z">
        <use transform="matrix(0.055555555555555546,0,0,0.055555555555555546,0,0)" xlink:href="#aL"/>
        <use transform="matrix(0.055555555555555546,0,0,0.055555555555555546,15.555555555555554,0)" xlink:href="#aM"/>
        <use transform="matrix(0.055555555555555546,0,0,0.055555555555555546,28.888888888888882,0)" xlink:href="#aN"/>
        <use transform="matrix(0.055555555555555546,0,0,0.055555555555555546,34.44444444444444,0)" xlink:href="#aO"/>
      </g>
    </defs>
  </g>
</svg>